<svg id="visual" viewBox="0 0 900 600" xmlns="http://www.w3.org/2000/svg" xmlns:xlink="http://www.w3.org/1999/xlink" version="1.1"><rect x="0" y="0" width="900" height="600" fill="#ffffff"></rect><defs><linearGradient id="grad1_0" x1="33.3%" y1="0%" x2="100%" y2="100%"><stop offset="20%" stop-color="#009415" stop-opacity="1"></stop><stop offset="80%" stop-color="#009415" stop-opacity="1"></stop></linearGradient></defs><defs><linearGradient id="grad1_1" x1="33.3%" y1="0%" x2="100%" y2="100%"><stop offset="20%" stop-color="#009415" stop-opacity="1"></stop><stop offset="80%" stop-color="#ffffff" stop-opacity="1"></stop></linearGradient></defs><defs><linearGradient id="grad2_0" x1="0%" y1="0%" x2="66.7%" y2="100%"><stop offset="20%" stop-color="#009415" stop-opacity="1"></stop><stop offset="80%" stop-color="#009415" stop-opacity="1"></stop></linearGradient></defs><defs><linearGradient id="grad2_1" x1="0%" y1="0%" x2="66.7%" y2="100%"><stop offset="20%" stop-color="#ffffff" stop-opacity="1"></stop><stop offset="80%" stop-color="#009415" stop-opacity="1"></stop></linearGradient></defs><g transform="translate(900, 0)"><path d="M0 243.4C-26.7 243.1 -53.4 242.8 -75.2 231.5C-97 220.1 -113.9 197.8 -129.9 178.8C-145.9 159.8 -161.1 144.1 -173.9 126.4C-186.7 108.7 -197.1 89.1 -208.3 67.7C-219.5 46.3 -231.4 23.1 -243.4 0L0 0Z" fill="#97ca8c"></path><path d="M0 121.7C-13.4 121.5 -26.7 121.4 -37.6 115.7C-48.5 110.1 -56.9 98.9 -65 89.4C-73 79.9 -80.6 72 -87 63.2C-93.4 54.3 -98.6 44.5 -104.1 33.8C-109.7 23.1 -115.7 11.6 -121.7 0L0 0Z" fill="#009415"></path></g><g transform="translate(0, 600)"><path d="M0 -243.4C27.6 -244.5 55.3 -245.6 75.2 -231.5C95.1 -217.4 107.3 -188.1 122.3 -168.3C137.2 -148.5 154.8 -138.2 169.9 -123.4C185 -108.6 197.4 -89.3 209.2 -68C221 -46.7 232.2 -23.3 243.4 0L0 0Z" fill="#97ca8c"></path><path d="M0 -121.7C13.8 -122.2 27.6 -122.8 37.6 -115.7C47.6 -108.7 53.7 -94 61.1 -84.1C68.6 -74.2 77.4 -69.1 84.9 -61.7C92.5 -54.3 98.7 -44.7 104.6 -34C110.5 -23.3 116.1 -11.7 121.7 0L0 0Z" fill="#009415"></path></g></svg>